<svg width="39" height="39" viewBox="0 0 39 39" fill="none" xmlns="http://www.w3.org/2000/svg">
<path d="M18.5204 9.83726e-05C16.0883 9.84789e-05 13.68 0.479143 11.433 1.40988C9.18595 2.34062 7.14428 3.70482 5.4245 5.4246C3.70472 7.14438 2.34052 9.18606 1.40978 11.4331C0.479044 13.6801 -2.12624e-07 16.0884 0 18.5205L18.5204 18.5205L18.5204 9.83726e-05Z" fill="#FFC25E"/>
<path d="M38.5712 9.91821e-05C38.5712 2.43223 38.0921 4.84055 37.1614 7.08755C36.2307 9.33455 34.8665 11.3762 33.1467 13.096C31.4269 14.8158 29.3852 16.18 27.1382 17.1107C24.8912 18.0415 22.4829 18.5205 20.0508 18.5205L20.0508 9.91821e-05H38.5712Z" fill="#FFC25E"/>
<path d="M18.5204 38.5714C16.0883 38.5714 13.68 38.0924 11.433 37.1617C9.18595 36.2309 7.14428 34.8667 5.4245 33.1469C3.70472 31.4272 2.34052 29.3855 1.40978 27.1385C0.479044 24.8915 -2.12624e-07 22.4832 0 20.051L18.5204 20.051L18.5204 38.5714Z" fill="#FFC25E"/>
<path d="M38.5712 38.5714C38.5712 36.1393 38.0921 33.731 37.1614 31.484C36.2307 29.237 34.8665 27.1953 33.1467 25.4755C31.4269 23.7557 29.3852 22.3915 27.1382 21.4608C24.8912 20.5301 22.4829 20.051 20.0508 20.051L20.0508 38.5714H38.5712Z" fill="#FFC25E"/>
</svg>
