<svg width="12" height="12" viewBox="0 0 12 12" fill="none" xmlns="http://www.w3.org/2000/svg">
<path d="M0.898711 9.93091H11.1013C11.5976 9.93091 12 9.52856 12 9.0322V2.96756C12 2.47125 11.5976 2.06885 11.1013 2.06885H0.898711C0.402352 2.06885 0 2.47125 0 2.96756V9.0322C0 9.52853 0.402352 9.93091 0.898711 9.93091Z" fill="#F5F5F5"/>
<path d="M11.9999 8.27584C11.3992 8.27584 11.3992 8.06894 10.7986 8.06894C10.1979 8.06894 10.1979 8.27584 9.5973 8.27584C8.99705 8.27584 8.99705 8.06894 8.39681 8.06894C7.79707 8.06894 7.79707 8.27584 7.19735 8.27584C6.5973 8.27584 6.5973 8.06894 5.99726 8.06894C5.39735 8.06894 5.39735 8.27584 4.79747 8.27584C4.19759 8.27584 4.19756 8.06894 3.5977 8.06894C2.99784 8.06894 2.9978 8.27584 2.39791 8.27584C1.79827 8.27584 1.79827 8.06894 1.19866 8.06894C0.599344 8.06894 0.599344 8.27584 0 8.27584V7.65515C0.59932 7.65515 0.59932 7.44824 1.19866 7.44824C1.79829 7.44824 1.79829 7.65515 2.39791 7.65515C2.99782 7.65515 2.99782 7.44824 3.5977 7.44824C4.19759 7.44824 4.19761 7.65515 4.79747 7.65515C5.39737 7.65515 5.39737 7.44824 5.99726 7.44824C6.5973 7.44824 6.5973 7.65515 7.19735 7.65515C7.79709 7.65515 7.79709 7.44824 8.39681 7.44824C8.99707 7.44824 8.99707 7.65515 9.5973 7.65515C10.198 7.65515 10.198 7.44824 10.7986 7.44824C11.3993 7.44824 11.3993 7.65515 11.9999 7.65515V8.27584Z" fill="#41479B"/>
<path d="M11.9999 5.79291C11.3992 5.79291 11.3992 5.586 10.7986 5.586C10.1979 5.586 10.1979 5.79291 9.5973 5.79291C8.99705 5.79291 8.99705 5.586 8.39681 5.586C7.79707 5.586 7.79707 5.79291 7.19735 5.79291C6.5973 5.79291 6.5973 5.586 5.99726 5.586C5.39735 5.586 5.39735 5.79291 4.79747 5.79291C4.19759 5.79291 4.19756 5.586 3.5977 5.586C2.99784 5.586 2.9978 5.79291 2.39791 5.79291C1.79827 5.79291 1.79827 5.586 1.19866 5.586C0.599344 5.586 0.599344 5.79291 0 5.79291V5.17224C0.59932 5.17224 0.59932 4.96533 1.19866 4.96533C1.79829 4.96533 1.79829 5.17224 2.39791 5.17224C2.99782 5.17224 2.99782 4.96533 3.5977 4.96533C4.19759 4.96533 4.19761 5.17224 4.79747 5.17224C5.39737 5.17224 5.39737 4.96533 5.99726 4.96533C6.5973 4.96533 6.5973 5.17224 7.19735 5.17224C7.79709 5.17224 7.79709 4.96533 8.39681 4.96533C8.99707 4.96533 8.99707 5.17224 9.5973 5.17224C10.198 5.17224 10.198 4.96533 10.7986 4.96533C11.3993 4.96533 11.3993 5.17224 11.9999 5.17224V5.79291Z" fill="#41479B"/>
<path d="M11.9999 4.55172C11.3992 4.55172 11.3992 4.34482 10.7986 4.34482C10.1979 4.34482 10.1979 4.55172 9.5973 4.55172C8.99705 4.55172 8.99705 4.34482 8.39681 4.34482C7.79707 4.34482 7.79707 4.55172 7.19735 4.55172C6.5973 4.55172 6.5973 4.34482 5.99726 4.34482C5.39735 4.34482 5.39735 4.55172 4.79747 4.55172C4.19759 4.55172 4.19756 4.34482 3.5977 4.34482C2.99784 4.34482 2.9978 4.55172 2.39791 4.55172C1.79827 4.55172 1.79827 4.34482 1.19866 4.34482C0.599344 4.34482 0.599344 4.55172 0 4.55172V3.93103C0.59932 3.93103 0.59932 3.72412 1.19866 3.72412C1.79829 3.72412 1.79829 3.93103 2.39791 3.93103C2.99782 3.93103 2.99782 3.72412 3.5977 3.72412C4.19759 3.72412 4.19761 3.93103 4.79747 3.93103C5.39737 3.93103 5.39737 3.72412 5.99726 3.72412C6.5973 3.72412 6.5973 3.93103 7.19735 3.93103C7.79709 3.93103 7.79709 3.72412 8.39681 3.72412C8.99707 3.72412 8.99707 3.93103 9.5973 3.93103C10.198 3.93103 10.198 3.72412 10.7986 3.72412C11.3993 3.72412 11.3993 3.93103 11.9999 3.93103V4.55172Z" fill="#41479B"/>
<path d="M11.9999 3.31027C11.3992 3.31027 11.3992 3.10336 10.7986 3.10336C10.1979 3.10336 10.1979 3.31027 9.5973 3.31027C8.99705 3.31027 8.99705 3.10336 8.39681 3.10336C7.79707 3.10336 7.79707 3.31027 7.19735 3.31027C6.5973 3.31027 6.5973 3.10336 5.99726 3.10336C5.39735 3.10336 5.39735 3.31027 4.79747 3.31027C4.19759 3.31027 4.19756 3.10336 3.5977 3.10336C2.99784 3.10336 2.9978 3.31027 2.39791 3.31027C1.79827 3.31027 1.79827 3.10336 1.19866 3.10336C0.599344 3.10336 0.599344 3.31027 0 3.31027V2.68957C0.59932 2.68957 0.59932 2.48267 1.19866 2.48267C1.79829 2.48267 1.79829 2.68957 2.39791 2.68957C2.99782 2.68957 2.99782 2.48267 3.5977 2.48267C4.19759 2.48267 4.19761 2.68957 4.79747 2.68957C5.39737 2.68957 5.39737 2.48267 5.99726 2.48267C6.5973 2.48267 6.5973 2.68957 7.19735 2.68957C7.79709 2.68957 7.79709 2.48267 8.39681 2.48267C8.99707 2.48267 8.99707 2.68957 9.5973 2.68957C10.198 2.68957 10.198 2.48267 10.7986 2.48267C11.3993 2.48267 11.3993 2.68957 11.9999 2.68957V3.31027Z" fill="#41479B"/>
<path d="M11.9999 7.03439C11.3992 7.03439 11.3992 6.82748 10.7986 6.82748C10.1979 6.82748 10.1979 7.03439 9.5973 7.03439C8.99705 7.03439 8.99705 6.82748 8.39681 6.82748C7.79707 6.82748 7.79707 7.03439 7.19735 7.03439C6.5973 7.03439 6.5973 6.82748 5.99726 6.82748C5.39735 6.82748 5.39735 7.03439 4.79747 7.03439C4.19759 7.03439 4.19756 6.82748 3.5977 6.82748C2.99784 6.82748 2.9978 7.03439 2.39791 7.03439C1.79827 7.03439 1.79827 6.82748 1.19866 6.82748C0.599344 6.82748 0.599344 7.03439 0 7.03439V6.41369C0.59932 6.41369 0.59932 6.20679 1.19866 6.20679C1.79829 6.20679 1.79829 6.41369 2.39791 6.41369C2.99782 6.41369 2.99782 6.20679 3.5977 6.20679C4.19759 6.20679 4.19761 6.41369 4.79747 6.41369C5.39737 6.41369 5.39737 6.20679 5.99726 6.20679C6.5973 6.20679 6.5973 6.41369 7.19735 6.41369C7.79709 6.41369 7.79709 6.20679 8.39681 6.20679C8.99707 6.20679 8.99707 6.41369 9.5973 6.41369C10.198 6.41369 10.198 6.20679 10.7986 6.20679C11.3993 6.20679 11.3993 6.41369 11.9999 6.41369V7.03439Z" fill="#41479B"/>
<path d="M11.9999 9.51705C11.3992 9.51705 11.3992 9.31015 10.7986 9.31015C10.1979 9.31015 10.1979 9.51705 9.5973 9.51705C8.99705 9.51705 8.99705 9.31015 8.39681 9.31015C7.79707 9.31015 7.79707 9.51705 7.19735 9.51705C6.5973 9.51705 6.5973 9.31015 5.99726 9.31015C5.39735 9.31015 5.39735 9.51705 4.79747 9.51705C4.19759 9.51705 4.19756 9.31015 3.5977 9.31015C2.99784 9.31015 2.9978 9.51705 2.39791 9.51705C1.79827 9.51705 1.79827 9.31015 1.19866 9.31015C0.599344 9.31015 0.599344 9.51705 0 9.51705V8.89636C0.59932 8.89636 0.59932 8.68945 1.19866 8.68945C1.79829 8.68945 1.79829 8.89636 2.39791 8.89636C2.99782 8.89636 2.99782 8.68945 3.5977 8.68945C4.19759 8.68945 4.19761 8.89636 4.79747 8.89636C5.39737 8.89636 5.39737 8.68945 5.99726 8.68945C6.5973 8.68945 6.5973 8.89636 7.19735 8.89636C7.79709 8.89636 7.79709 8.68945 8.39681 8.68945C8.99707 8.68945 8.99707 8.89636 9.5973 8.89636C10.198 8.89636 10.198 8.68945 10.7986 8.68945C11.3993 8.68945 11.3993 8.89636 11.9999 8.89636V9.51705Z" fill="#41479B"/>
<path d="M0.206906 5.99988H5.79309C5.90735 5.99988 6 5.90723 6 5.79297V2.27575C6 2.16152 5.90742 2.06892 5.79321 2.06885H0.898711C0.402352 2.06885 0 2.47125 0 2.96756V5.79297C0 5.90728 0.0926484 5.99988 0.206906 5.99988Z" fill="#41479B"/>
<path d="M0.206906 5.99988H0.566273L2.48276 4.74426V5.99988H3.51724V4.74426L5.4337 5.99988H5.79307C5.90733 5.99988 5.99998 5.90723 5.99998 5.79297V5.62886L4.35574 4.5516H5.99998V3.51712H4.35572L5.99998 2.43986V2.27575C5.99998 2.16152 5.9074 2.06892 5.79319 2.06885H5.4337L3.51722 3.32446V2.06885H2.48273V3.32446L0.629156 2.11005C0.412734 2.17802 0.231797 2.32575 0.120258 2.51866L1.64426 3.51712H0V4.5516H1.64426L0 5.62886V5.79297C0 5.90723 0.0926484 5.99988 0.206906 5.99988Z" fill="#F5F5F5"/>
<path d="M5.99998 3.72403H3.31034V2.06885H2.68964V3.72403H0V4.3447H2.68964V5.99988H3.31034V4.3447H5.99998V3.72403Z" fill="#FF4B55"/>
<path d="M0.193359 2.41181L1.89638 3.51729H2.27639L0.342891 2.26221C0.287367 2.30604 0.237188 2.35626 0.193359 2.41181Z" fill="#FF4B55"/>
<path d="M3.89759 3.51712L5.96886 2.17261C5.93286 2.11169 5.86934 2.06885 5.79343 2.06885H5.74869L3.51758 3.51712H3.89759Z" fill="#FF4B55"/>
<path d="M2.0966 4.55176L0.0292969 5.8937C0.0649453 5.95609 0.129445 6.00003 0.206461 6.00003H0.245484L2.47662 4.55176H2.0966Z" fill="#FF4B55"/>
<path d="M5.99716 5.80939L4.05968 4.55176H3.67969L5.87984 5.9799C5.94577 5.94931 5.99095 5.88521 5.99716 5.80939Z" fill="#FF4B55"/>
<path d="M9.10416 9.07902C9.02506 9.07902 8.96094 9.01487 8.96094 8.93579V4.35254H9.24739V8.93581C9.24741 9.01491 9.18327 9.07902 9.10416 9.07902Z" fill="#965032"/>
<path d="M11.11 4.92558L10.8235 4.78236L9.76884 4.65054L10.4214 3.81155L10.5227 3.50771L10.2188 3.609L9.37984 4.26153L9.24803 3.20689L9.10478 2.92041L8.96155 3.20689L8.82974 4.26153L7.99075 3.609L7.68693 3.50771L7.7882 3.81155L8.44075 4.65054L7.38606 4.78236L7.09961 4.92558L7.38606 5.06881L8.44075 5.20067L7.7882 6.03961L7.68693 6.34348L7.99075 6.24221L8.90223 5.53327L9.10478 5.21206L9.30733 5.53327L10.2188 6.24221L10.5227 6.34348L10.4214 6.03961L9.76884 5.20067L10.8235 5.06881L11.11 4.92558Z" fill="#73AF00"/>
<path d="M9.72736 6.5942C9.59864 6.46572 9.32302 6.51295 9.17543 6.55021V6.43C9.17543 6.39046 9.14337 6.3584 9.10383 6.3584C9.06429 6.3584 9.03223 6.39046 9.03223 6.43V6.55019C8.88466 6.51283 8.60906 6.4656 8.4803 6.5942C8.35753 6.7169 8.44648 7.01275 8.53095 7.21844V7.40889C8.53095 7.46156 8.57362 7.50419 8.62624 7.50419H9.58146C9.6341 7.50419 9.67676 7.46151 9.67676 7.40889V7.21844C9.76118 7.01275 9.85013 6.7169 9.72736 6.5942ZM9.62609 6.69548C9.68077 6.7502 9.61952 6.99002 9.52085 7.21776H9.17541V6.69815C9.33621 6.65261 9.55648 6.6257 9.62609 6.69548ZM8.58155 6.69548C8.65111 6.62573 8.87138 6.65263 9.03223 6.69815V7.21773H8.68678C8.58811 6.99002 8.52687 6.7502 8.58155 6.69548Z" fill="#FFE15A"/>
</svg>
