<svg width="20" height="21" viewBox="0 0 20 21" fill="none" xmlns="http://www.w3.org/2000/svg">
<path d="M18.3337 14.4501V4.39174C18.3337 3.39174 17.517 2.65008 16.5253 2.73341H16.4753C14.7253 2.88341 12.067 3.77508 10.5837 4.70841L10.442 4.80008C10.2003 4.95008 9.80033 4.95008 9.55866 4.80008L9.35033 4.67508C7.86699 3.75008 5.21699 2.86674 3.46699 2.72508C2.47533 2.64174 1.66699 3.39174 1.66699 4.38341V14.4501C1.66699 15.2501 2.31699 16.0001 3.11699 16.1001L3.35866 16.1334C5.16699 16.3751 7.95866 17.2917 9.55866 18.1667L9.59199 18.1834C9.81699 18.3084 10.1753 18.3084 10.392 18.1834C11.992 17.3001 14.792 16.3751 16.6087 16.1334L16.8837 16.1001C17.6837 16.0001 18.3337 15.2501 18.3337 14.4501Z" stroke="#977949" stroke-width="1.5" stroke-linecap="round" stroke-linejoin="round"/>
<path d="M10 5.07495V17.575" stroke="#977949" stroke-width="1.5" stroke-linecap="round" stroke-linejoin="round"/>
<path d="M6.45801 7.57495H4.58301" stroke="#977949" stroke-width="1.5" stroke-linecap="round" stroke-linejoin="round"/>
<path d="M7.08301 10.075H4.58301" stroke="#977949" stroke-width="1.5" stroke-linecap="round" stroke-linejoin="round"/>
</svg>
