<svg width="20" height="21" viewBox="0 0 20 21" fill="none" xmlns="http://www.w3.org/2000/svg">
<rect width="20" height="20" transform="translate(0 0.5)" fill="#192E31"/>
<path d="M4.64142 19.4166C2.69142 19.4166 1.04142 17.7666 1.04142 15.8166V10.6833C0.999757 8.24992 1.89976 5.95825 3.58309 4.24159C5.26642 2.53325 7.52476 1.58325 9.95809 1.58325C14.9248 1.58325 18.9581 5.62492 18.9581 10.5833V15.7166C18.9581 17.6999 17.3414 19.3166 15.3581 19.3166C13.4081 19.3166 11.7581 17.6666 11.7581 15.7166V13.3749C11.7581 12.1666 12.7081 11.2166 13.9164 11.2166C15.1248 11.2166 16.0748 12.1666 16.0748 13.3749V15.8999C16.0748 16.2416 15.7914 16.5249 15.4498 16.5249C15.1081 16.5249 14.8248 16.2416 14.8248 15.8999V13.3749C14.8248 12.8083 14.3664 12.4666 13.9164 12.4666C13.3498 12.4666 13.0081 12.9249 13.0081 13.3749V15.7166C13.0081 16.9916 14.0831 18.0666 15.3581 18.0666C16.6331 18.0666 17.7081 16.9916 17.7081 15.7166V10.5833C17.7081 6.30825 14.2331 2.83325 9.95809 2.83325C7.86642 2.83325 5.92476 3.64159 4.47476 5.11659C3.02476 6.59158 2.24976 8.56658 2.29142 10.6666V15.8166C2.29142 17.0916 3.36642 18.1666 4.64142 18.1666C5.91642 18.1666 6.99142 17.0916 6.99142 15.8166V13.4749C6.99142 12.9083 6.53309 12.5666 6.08309 12.5666C5.51642 12.5666 5.17476 13.0249 5.17476 13.4749V15.9083C5.17476 16.2499 4.89142 16.5333 4.54976 16.5333C4.20809 16.5333 3.92476 16.2499 3.92476 15.9083V13.4749C3.92476 12.2666 4.87476 11.3166 6.08309 11.3166C7.29142 11.3166 8.24142 12.2666 8.24142 13.4749V15.8166C8.24142 17.7666 6.59142 19.4166 4.64142 19.4166Z" fill="#AE8138"/>
</svg>
