<svg width="143" height="39" viewBox="0 0 143 39" fill="none" xmlns="http://www.w3.org/2000/svg">
<path d="M18.5204 3.73374e-05C16.0883 3.74437e-05 13.68 0.479082 11.433 1.40982C9.18595 2.34056 7.14428 3.70476 5.4245 5.42454C3.70472 7.14432 2.34052 9.18599 1.40978 11.433C0.479044 13.68 -2.12624e-07 16.0883 0 18.5204L18.5204 18.5204L18.5204 3.73374e-05Z" fill="#A8A8A8"/>
<path d="M38.5712 -2.28882e-05C38.5712 2.43211 38.0921 4.84043 37.1614 7.08743C36.2307 9.33443 34.8665 11.3761 33.1467 13.0959C31.4269 14.8157 29.3852 16.1799 27.1382 17.1106C24.8912 18.0413 22.4829 18.5204 20.0508 18.5204L20.0508 -2.28882e-05H38.5712Z" fill="#A8A8A8"/>
<path d="M18.5204 38.5714C16.0883 38.5714 13.68 38.0924 11.433 37.1617C9.18595 36.2309 7.14428 34.8667 5.4245 33.1469C3.70472 31.4272 2.34052 29.3855 1.40978 27.1385C0.479044 24.8915 -2.12624e-07 22.4832 0 20.051L18.5204 20.051L18.5204 38.5714Z" fill="#A8A8A8"/>
<path d="M38.5712 38.5714C38.5712 36.1393 38.0921 33.731 37.1614 31.484C36.2307 29.237 34.8665 27.1953 33.1467 25.4755C31.4269 23.7557 29.3852 22.3915 27.1382 21.4608C24.8912 20.5301 22.4829 20.051 20.0508 20.051L20.0508 38.5714H38.5712Z" fill="#A8A8A8"/>
<path d="M55.152 19.4419C55.8686 19.5946 56.4442 19.9529 56.8789 20.5168C57.3135 21.069 57.5309 21.7033 57.5309 22.4199C57.5309 23.4537 57.1667 24.2761 56.4383 24.8869C55.7217 25.4861 54.7173 25.7856 53.4251 25.7856H47.6628V13.4154H53.2312C54.4882 13.4154 55.4692 13.7032 56.174 14.2788C56.8906 14.8545 57.2489 15.6357 57.2489 16.6225C57.2489 17.3508 57.0551 17.9558 56.6674 18.4375C56.2915 18.9191 55.7863 19.254 55.152 19.4419ZM50.6761 18.4199H52.6497C53.1431 18.4199 53.519 18.3141 53.7775 18.1027C54.0477 17.8795 54.1828 17.5564 54.1828 17.1335C54.1828 16.7106 54.0477 16.3875 53.7775 16.1643C53.519 15.9411 53.1431 15.8295 52.6497 15.8295H50.6761V18.4199ZM52.8964 23.3539C53.4016 23.3539 53.7892 23.2423 54.0594 23.0191C54.3414 22.7841 54.4824 22.4493 54.4824 22.0147C54.4824 21.58 54.3355 21.2393 54.0418 20.9926C53.7599 20.7459 53.3663 20.6226 52.8612 20.6226H50.6761V23.3539H52.8964ZM62.9712 25.9266C62.0079 25.9266 61.1386 25.721 60.3633 25.3099C59.5997 24.8987 58.9947 24.3113 58.5482 23.5477C58.1136 22.7841 57.8962 21.8913 57.8962 20.8693C57.8962 19.859 58.1195 18.972 58.5659 18.2084C59.0123 17.4331 59.6232 16.8398 60.3985 16.4286C61.1738 16.0175 62.0432 15.8119 63.0065 15.8119C63.9698 15.8119 64.8391 16.0175 65.6145 16.4286C66.3898 16.8398 67.0007 17.4331 67.4471 18.2084C67.8935 18.972 68.1167 19.859 68.1167 20.8693C68.1167 21.8796 67.8876 22.7724 67.4295 23.5477C66.9831 24.3113 66.3663 24.8987 65.5792 25.3099C64.8039 25.721 63.9345 25.9266 62.9712 25.9266ZM62.9712 23.3186C63.5469 23.3186 64.0344 23.1072 64.4338 22.6843C64.845 22.2614 65.0506 21.6563 65.0506 20.8693C65.0506 20.0822 64.8509 19.4772 64.4514 19.0542C64.0638 18.6313 63.5821 18.4199 63.0065 18.4199C62.4191 18.4199 61.9316 18.6313 61.5439 19.0542C61.1562 19.4654 60.9624 20.0704 60.9624 20.8693C60.9624 21.6563 61.1503 22.2614 61.5263 22.6843C61.9139 23.1072 62.3956 23.3186 62.9712 23.3186ZM73.408 25.9266C72.4447 25.9266 71.5753 25.721 70.8 25.3099C70.0364 24.8987 69.4314 24.3113 68.985 23.5477C68.5503 22.7841 68.333 21.8913 68.333 20.8693C68.333 19.859 68.5562 18.972 69.0026 18.2084C69.449 17.4331 70.0599 16.8398 70.8352 16.4286C71.6106 16.0175 72.4799 15.8119 73.4432 15.8119C74.4065 15.8119 75.2758 16.0175 76.0512 16.4286C76.8265 16.8398 77.4374 17.4331 77.8838 18.2084C78.3302 18.972 78.5534 19.859 78.5534 20.8693C78.5534 21.8796 78.3244 22.7724 77.8662 23.5477C77.4198 24.3113 76.803 24.8987 76.016 25.3099C75.2406 25.721 74.3713 25.9266 73.408 25.9266ZM73.408 23.3186C73.9836 23.3186 74.4711 23.1072 74.8706 22.6843C75.2817 22.2614 75.4873 21.6563 75.4873 20.8693C75.4873 20.0822 75.2876 19.4772 74.8882 19.0542C74.5005 18.6313 74.0189 18.4199 73.4432 18.4199C72.8558 18.4199 72.3683 18.6313 71.9806 19.0542C71.593 19.4654 71.3991 20.0704 71.3991 20.8693C71.3991 21.6563 71.5871 22.2614 71.963 22.6843C72.3507 23.1072 72.8323 23.3186 73.408 23.3186ZM85.3778 25.7856L82.3821 21.6622V25.7856H79.3689V12.7458H82.3821V19.9529L85.3602 15.9529H89.0783L84.9901 20.8869L89.1135 25.7856H85.3778ZM106.501 13.4154L103.276 25.7856H99.6286L97.655 17.6445L95.6109 25.7856H91.9633L88.8266 13.4154H92.0514L93.8311 22.4199L96.0338 13.4154H99.3467L101.461 22.4199L103.259 13.4154H106.501ZM111.705 25.9266C110.742 25.9266 109.872 25.721 109.097 25.3099C108.333 24.8987 107.728 24.3113 107.282 23.5477C106.847 22.7841 106.63 21.8913 106.63 20.8693C106.63 19.859 106.853 18.972 107.299 18.2084C107.746 17.4331 108.357 16.8398 109.132 16.4286C109.907 16.0175 110.777 15.8119 111.74 15.8119C112.703 15.8119 113.573 16.0175 114.348 16.4286C115.123 16.8398 115.734 17.4331 116.181 18.2084C116.627 18.972 116.85 19.859 116.85 20.8693C116.85 21.8796 116.621 22.7724 116.163 23.5477C115.717 24.3113 115.1 24.8987 114.313 25.3099C113.537 25.721 112.668 25.9266 111.705 25.9266ZM111.705 23.3186C112.28 23.3186 112.768 23.1072 113.167 22.6843C113.579 22.2614 113.784 21.6563 113.784 20.8693C113.784 20.0822 113.584 19.4772 113.185 19.0542C112.797 18.6313 112.316 18.4199 111.74 18.4199C111.153 18.4199 110.665 18.6313 110.277 19.0542C109.89 19.4654 109.696 20.0704 109.696 20.8693C109.696 21.6563 109.884 22.2614 110.26 22.6843C110.648 23.1072 111.129 23.3186 111.705 23.3186ZM120.679 17.5917C121.031 17.0513 121.472 16.6284 122.001 16.3229C122.529 16.0057 123.117 15.8471 123.763 15.8471V19.0366H122.935C122.183 19.0366 121.619 19.2011 121.243 19.53C120.867 19.8472 120.679 20.4111 120.679 21.2217V25.7856H117.666V15.9529H120.679V17.5917ZM136.966 15.8471C138.188 15.8471 139.157 16.2172 139.874 16.9573C140.602 17.6974 140.966 18.7253 140.966 20.041V25.7856H137.971V20.4463C137.971 19.812 137.8 19.3244 137.46 18.9838C137.131 18.6313 136.673 18.4551 136.085 18.4551C135.498 18.4551 135.034 18.6313 134.693 18.9838C134.364 19.3244 134.2 19.812 134.2 20.4463V25.7856H131.204V20.4463C131.204 19.812 131.034 19.3244 130.693 18.9838C130.364 18.6313 129.906 18.4551 129.319 18.4551C128.731 18.4551 128.267 18.6313 127.927 18.9838C127.598 19.3244 127.433 19.812 127.433 20.4463V25.7856H124.42V15.9529H127.433V17.1864C127.739 16.7752 128.138 16.4521 128.631 16.2172C129.125 15.9705 129.683 15.8471 130.305 15.8471C131.046 15.8471 131.703 16.0057 132.279 16.3229C132.866 16.6401 133.325 17.0924 133.654 17.6798C133.994 17.1394 134.458 16.6988 135.046 16.3582C135.633 16.0175 136.273 15.8471 136.966 15.8471Z" fill="#A8A8A8"/>
</svg>
