<svg width="30" height="31" viewBox="0 0 30 31" fill="none" xmlns="http://www.w3.org/2000/svg">
<path d="M19.0506 28.4091H18.8881C13.3381 28.4091 10.6631 26.2216 10.2006 21.3216C10.1506 20.8091 10.5256 20.3466 11.0506 20.2966C11.5506 20.2466 12.0256 20.6341 12.0756 21.1466C12.4381 25.0716 14.2881 26.5341 18.9006 26.5341H19.0631C24.1506 26.5341 25.9506 24.7341 25.9506 19.6466V11.4966C25.9506 6.40913 24.1506 4.60913 19.0631 4.60913H18.9006C14.2631 4.60913 12.4131 6.09663 12.0756 10.0966C12.0131 10.6091 11.5756 10.9966 11.0506 10.9466C10.5256 10.9091 10.1506 10.4466 10.1881 9.93413C10.6131 4.95913 13.3006 2.73413 18.8881 2.73413H19.0506C25.1881 2.73413 27.8131 5.35913 27.8131 11.4966V19.6466C27.8131 25.7841 25.1881 28.4091 19.0506 28.4091Z" fill="#54838F"/>
<path d="M18.7504 16.509H4.52539C4.01289 16.509 3.58789 16.084 3.58789 15.5715C3.58789 15.059 4.01289 14.634 4.52539 14.634H18.7504C19.2629 14.634 19.6879 15.059 19.6879 15.5715C19.6879 16.084 19.2629 16.509 18.7504 16.509Z" fill="#54838F"/>
<path d="M7.31328 20.6966C7.07578 20.6966 6.83828 20.6091 6.65078 20.4216L2.46328 16.2341C2.10078 15.8716 2.10078 15.2716 2.46328 14.9091L6.65078 10.7216C7.01328 10.3591 7.61328 10.3591 7.97578 10.7216C8.33828 11.0841 8.33828 11.6841 7.97578 12.0466L4.45078 15.5716L7.97578 19.0966C8.33828 19.4591 8.33828 20.0591 7.97578 20.4216C7.80078 20.6091 7.55078 20.6966 7.31328 20.6966Z" fill="#54838F"/>
</svg>
