<svg width="143" height="40" viewBox="0 0 143 40" fill="none" xmlns="http://www.w3.org/2000/svg">
<path d="M18.5204 0.714454C16.0883 0.714454 13.68 1.1935 11.433 2.12424C9.18595 3.05497 7.14428 4.41918 5.4245 6.13896C3.70472 7.85874 2.34052 9.90041 1.40978 12.1474C0.479044 14.3944 -2.12624e-07 16.8027 0 19.2349L18.5204 19.2349L18.5204 0.714454Z" fill="#FFC25E"/>
<path d="M38.5712 0.714455C38.5712 3.14659 38.0921 5.55491 37.1614 7.80191C36.2307 10.0489 34.8665 12.0906 33.1467 13.8104C31.4269 15.5301 29.3852 16.8943 27.1382 17.8251C24.8912 18.7558 22.4829 19.2349 20.0508 19.2349L20.0508 0.714455H38.5712Z" fill="#FFC25E"/>
<path d="M18.5204 39.2858C16.0883 39.2858 13.68 38.8067 11.433 37.876C9.18595 36.9453 7.14428 35.5811 5.4245 33.8613C3.70472 32.1415 2.34052 30.0998 1.40978 27.8528C0.479044 25.6058 -2.12624e-07 23.1975 0 20.7654L18.5204 20.7654L18.5204 39.2858Z" fill="#FFC25E"/>
<path d="M38.5712 39.2858C38.5712 36.8537 38.0921 34.4453 37.1614 32.1983C36.2307 29.9513 34.8665 27.9097 33.1467 26.1899C31.4269 24.4701 29.3852 23.1059 27.1382 22.1752C24.8912 21.2444 22.4829 20.7654 20.0508 20.7654L20.0508 39.2858H38.5712Z" fill="#FFC25E"/>
<path d="M55.152 20.1563C55.8686 20.309 56.4442 20.6673 56.8789 21.2312C57.3135 21.7833 57.5309 22.4177 57.5309 23.1343C57.5309 24.1681 57.1667 24.9904 56.4383 25.6013C55.7217 26.2004 54.7173 26.5 53.4251 26.5H47.6628V14.1297H53.2312C54.4882 14.1297 55.4692 14.4175 56.174 14.9932C56.8906 15.5688 57.2489 16.35 57.2489 17.3368C57.2489 18.0652 57.0551 18.6702 56.6674 19.1518C56.2915 19.6335 55.7863 19.9683 55.152 20.1563ZM50.6761 19.1342H52.6497C53.1431 19.1342 53.519 19.0285 53.7775 18.817C54.0477 18.5938 54.1828 18.2708 54.1828 17.8479C54.1828 17.4249 54.0477 17.1019 53.7775 16.8787C53.519 16.6555 53.1431 16.5439 52.6497 16.5439H50.6761V19.1342ZM52.8964 24.0682C53.4016 24.0682 53.7892 23.9566 54.0594 23.7334C54.3414 23.4985 54.4824 23.1637 54.4824 22.729C54.4824 22.2943 54.3355 21.9537 54.0418 21.707C53.7599 21.4603 53.3663 21.3369 52.8612 21.3369H50.6761V24.0682H52.8964ZM62.9712 26.641C62.0079 26.641 61.1386 26.4354 60.3633 26.0242C59.5997 25.6131 58.9947 25.0257 58.5482 24.2621C58.1136 23.4985 57.8962 22.6057 57.8962 21.5836C57.8962 20.5733 58.1195 19.6864 58.5659 18.9228C59.0123 18.1474 59.6232 17.5542 60.3985 17.143C61.1738 16.7318 62.0432 16.5262 63.0065 16.5262C63.9698 16.5262 64.8391 16.7318 65.6145 17.143C66.3898 17.5542 67.0007 18.1474 67.4471 18.9228C67.8935 19.6864 68.1167 20.5733 68.1167 21.5836C68.1167 22.5939 67.8876 23.4867 67.4295 24.2621C66.9831 25.0257 66.3663 25.6131 65.5792 26.0242C64.8039 26.4354 63.9345 26.641 62.9712 26.641ZM62.9712 24.033C63.5469 24.033 64.0344 23.8215 64.4338 23.3986C64.845 22.9757 65.0506 22.3707 65.0506 21.5836C65.0506 20.7965 64.8509 20.1915 64.4514 19.7686C64.0638 19.3457 63.5821 19.1342 63.0065 19.1342C62.4191 19.1342 61.9316 19.3457 61.5439 19.7686C61.1562 20.1798 60.9624 20.7848 60.9624 21.5836C60.9624 22.3707 61.1503 22.9757 61.5263 23.3986C61.9139 23.8215 62.3956 24.033 62.9712 24.033ZM73.408 26.641C72.4447 26.641 71.5753 26.4354 70.8 26.0242C70.0364 25.6131 69.4314 25.0257 68.985 24.2621C68.5503 23.4985 68.333 22.6057 68.333 21.5836C68.333 20.5733 68.5562 19.6864 69.0026 18.9228C69.449 18.1474 70.0599 17.5542 70.8352 17.143C71.6106 16.7318 72.4799 16.5262 73.4432 16.5262C74.4065 16.5262 75.2758 16.7318 76.0512 17.143C76.8265 17.5542 77.4374 18.1474 77.8838 18.9228C78.3302 19.6864 78.5534 20.5733 78.5534 21.5836C78.5534 22.5939 78.3244 23.4867 77.8662 24.2621C77.4198 25.0257 76.803 25.6131 76.016 26.0242C75.2406 26.4354 74.3713 26.641 73.408 26.641ZM73.408 24.033C73.9836 24.033 74.4711 23.8215 74.8706 23.3986C75.2817 22.9757 75.4873 22.3707 75.4873 21.5836C75.4873 20.7965 75.2876 20.1915 74.8882 19.7686C74.5005 19.3457 74.0189 19.1342 73.4432 19.1342C72.8558 19.1342 72.3683 19.3457 71.9806 19.7686C71.593 20.1798 71.3991 20.7848 71.3991 21.5836C71.3991 22.3707 71.5871 22.9757 71.963 23.3986C72.3507 23.8215 72.8323 24.033 73.408 24.033ZM85.3778 26.5L82.3821 22.3766V26.5H79.3689V13.4601H82.3821V20.6673L85.3602 16.6672H89.0783L84.9901 21.6012L89.1135 26.5H85.3778ZM106.501 14.1297L103.276 26.5H99.6286L97.655 18.3589L95.6109 26.5H91.9633L88.8266 14.1297H92.0514L93.8311 23.1343L96.0338 14.1297H99.3467L101.461 23.1343L103.259 14.1297H106.501ZM111.705 26.641C110.742 26.641 109.872 26.4354 109.097 26.0242C108.333 25.6131 107.728 25.0257 107.282 24.2621C106.847 23.4985 106.63 22.6057 106.63 21.5836C106.63 20.5733 106.853 19.6864 107.299 18.9228C107.746 18.1474 108.357 17.5542 109.132 17.143C109.907 16.7318 110.777 16.5262 111.74 16.5262C112.703 16.5262 113.573 16.7318 114.348 17.143C115.123 17.5542 115.734 18.1474 116.181 18.9228C116.627 19.6864 116.85 20.5733 116.85 21.5836C116.85 22.5939 116.621 23.4867 116.163 24.2621C115.717 25.0257 115.1 25.6131 114.313 26.0242C113.537 26.4354 112.668 26.641 111.705 26.641ZM111.705 24.033C112.28 24.033 112.768 23.8215 113.167 23.3986C113.579 22.9757 113.784 22.3707 113.784 21.5836C113.784 20.7965 113.584 20.1915 113.185 19.7686C112.797 19.3457 112.316 19.1342 111.74 19.1342C111.153 19.1342 110.665 19.3457 110.277 19.7686C109.89 20.1798 109.696 20.7848 109.696 21.5836C109.696 22.3707 109.884 22.9757 110.26 23.3986C110.648 23.8215 111.129 24.033 111.705 24.033ZM120.679 18.306C121.031 17.7656 121.472 17.3427 122.001 17.0373C122.529 16.7201 123.117 16.5615 123.763 16.5615V19.751H122.935C122.183 19.751 121.619 19.9154 121.243 20.2444C120.867 20.5616 120.679 21.1255 120.679 21.936V26.5H117.666V16.6672H120.679V18.306ZM136.966 16.5615C138.188 16.5615 139.157 16.9315 139.874 17.6716C140.602 18.4117 140.966 19.4397 140.966 20.7554V26.5H137.971V21.1607C137.971 20.5263 137.8 20.0388 137.46 19.6981C137.131 19.3457 136.673 19.1695 136.085 19.1695C135.498 19.1695 135.034 19.3457 134.693 19.6981C134.364 20.0388 134.2 20.5263 134.2 21.1607V26.5H131.204V21.1607C131.204 20.5263 131.034 20.0388 130.693 19.6981C130.364 19.3457 129.906 19.1695 129.319 19.1695C128.731 19.1695 128.267 19.3457 127.927 19.6981C127.598 20.0388 127.433 20.5263 127.433 21.1607V26.5H124.42V16.6672H127.433V17.9007C127.739 17.4896 128.138 17.1665 128.631 16.9315C129.125 16.6848 129.683 16.5615 130.305 16.5615C131.046 16.5615 131.703 16.7201 132.279 17.0373C132.866 17.3545 133.325 17.8067 133.654 18.3941C133.994 17.8537 134.458 17.4132 135.046 17.0725C135.633 16.7318 136.273 16.5615 136.966 16.5615Z" fill="white"/>
</svg>
