<svg width="20" height="21" viewBox="0 0 20 21" fill="none" xmlns="http://www.w3.org/2000/svg">
<path d="M14.166 16.1535H10.8327L7.12434 18.6201C6.57434 18.9868 5.83268 18.5951 5.83268 17.9285V16.1535C3.33268 16.1535 1.66602 14.4868 1.66602 11.9868V6.98673C1.66602 4.48673 3.33268 2.82007 5.83268 2.82007H14.166C16.666 2.82007 18.3327 4.48673 18.3327 6.98673V11.9868C18.3327 14.4868 16.666 16.1535 14.166 16.1535Z" stroke="#97AAAD" stroke-width="1.5" stroke-miterlimit="10" stroke-linecap="round" stroke-linejoin="round"/>
<path d="M10.0005 10.2617V10.0868C10.0005 9.52008 10.3505 9.22007 10.7005 8.9784C11.0422 8.74507 11.3838 8.44508 11.3838 7.89508C11.3838 7.12841 10.7672 6.51172 10.0005 6.51172C9.23383 6.51172 8.61719 7.12841 8.61719 7.89508" stroke="#97AAAD" stroke-width="1.5" stroke-linecap="round" stroke-linejoin="round"/>
<path d="M9.9969 12.2536H10.0044" stroke="#97AAAD" stroke-width="1.5" stroke-linecap="round" stroke-linejoin="round"/>
</svg>
