<svg width="24" height="25" viewBox="0 0 24 25" fill="none" xmlns="http://www.w3.org/2000/svg">
<path d="M2.83672 11.4941H9.50479C10.1661 11.4941 10.7048 10.9555 10.7048 10.2941V3.62603C10.7048 2.96467 10.1661 2.42603 9.50479 2.42603H2.83672C2.17537 2.42603 1.63672 2.96467 1.63672 3.62603V10.2941C1.63672 10.9555 2.17537 11.4941 2.83672 11.4941ZM2.72763 3.62603C2.72763 3.56551 2.77706 3.51693 2.83672 3.51693H9.50479C9.5653 3.51693 9.61388 3.56551 9.61388 3.62603V10.2941C9.61388 10.3546 9.5653 10.4032 9.50479 10.4032H2.83672C2.77706 10.4032 2.72763 10.3546 2.72763 10.2941V3.62603Z" fill="#8C5F16"/>
<path d="M21.1649 2.42603H14.4969C13.8355 2.42603 13.2969 2.96467 13.2969 3.62603V10.2941C13.2969 10.9555 13.8355 11.4941 14.4969 11.4941H21.1649C21.8263 11.4941 22.3649 10.9555 22.3649 10.2941V3.62603C22.3649 2.96467 21.8263 2.42603 21.1649 2.42603ZM21.274 10.2941C21.274 10.3546 21.2246 10.4032 21.1649 10.4032H14.4969C14.4372 10.4032 14.3878 10.3546 14.3878 10.2941V3.62603C14.3878 3.56551 14.4372 3.51693 14.4969 3.51693H21.1649C21.2246 3.51693 21.274 3.56551 21.274 3.62603V10.2941Z" fill="#8C5F16"/>
<path d="M2.83672 23.1533H9.50479C10.1661 23.1533 10.7048 22.6146 10.7048 21.9533V15.2852C10.7048 14.6239 10.1661 14.0852 9.50479 14.0852H2.83672C2.17537 14.0852 1.63672 14.6239 1.63672 15.2852V21.9533C1.63672 22.6146 2.17537 23.1533 2.83672 23.1533ZM2.72763 15.2852C2.72763 15.2247 2.77706 15.1761 2.83672 15.1761H9.50479C9.5653 15.1761 9.61388 15.2247 9.61388 15.2852V21.9533C9.61388 22.0138 9.5653 22.0624 9.50479 22.0624H2.83672C2.77706 22.0624 2.72763 22.0138 2.72763 21.9533V15.2852Z" fill="#8C5F16"/>
<path d="M21.1649 14.0852H14.4969C13.8355 14.0852 13.2969 14.6239 13.2969 15.2852V21.9533C13.2969 22.6146 13.8355 23.1533 14.4969 23.1533H21.1649C21.8263 23.1533 22.3649 22.6146 22.3649 21.9533V15.2852C22.3649 14.6239 21.8263 14.0852 21.1649 14.0852ZM21.274 21.9533C21.274 22.0138 21.2246 22.0624 21.1649 22.0624H14.4969C14.4372 22.0624 14.3878 22.0138 14.3878 21.9533V15.2852C14.3878 15.2247 14.4372 15.1761 14.4969 15.1761H21.1649C21.2246 15.1761 21.274 15.2247 21.274 15.2852V21.9533Z" fill="#8C5F16"/>
</svg>
