<svg width="24" height="25" viewBox="0 0 24 25" fill="none" xmlns="http://www.w3.org/2000/svg">
<path d="M3.84612 4.38197C2.20096 6.02955 1.06144 8.18278 0.676766 10.4836C0.488056 11.6134 0.449347 12.7578 0.601766 13.8949C0.759024 15.0852 1.08564 16.2223 1.59128 17.311C2.58322 19.4521 4.29612 21.2739 6.35741 22.4207C8.35096 23.5312 10.6905 24.0344 12.9647 23.8118C14.1018 23.7005 15.2098 23.4417 16.2647 22.9989C17.4066 22.5223 18.4469 21.8836 19.3881 21.0755C21.1566 19.5562 22.4389 17.4658 22.9953 15.2013C23.5373 12.9925 23.4211 10.6094 22.6179 8.47794C21.759 6.20375 20.2106 4.25133 18.1832 2.90859C16.2743 1.64326 13.959 0.987619 11.6679 1.04084C9.36951 1.09407 7.0808 1.84407 5.22515 3.20859C4.73644 3.56665 4.27435 3.95375 3.84612 4.38197C3.57757 4.65052 3.55822 5.14407 3.84612 5.40778C4.13644 5.67391 4.58402 5.69326 4.87193 5.40778C5.12354 5.15617 5.38725 4.91665 5.66064 4.69165C5.72354 4.64084 5.78886 4.59004 5.85177 4.53923C5.94854 4.46181 5.69451 4.65778 5.84451 4.54649C5.87354 4.52472 5.90015 4.50536 5.92919 4.48359C6.06951 4.37955 6.20983 4.28036 6.35499 4.18359C6.91386 3.81101 7.50902 3.49165 8.12838 3.23036C8.07031 3.25455 8.01225 3.27875 7.95419 3.30294C8.82031 2.94004 9.73241 2.69084 10.6639 2.56262C10.5985 2.5723 10.5356 2.57955 10.4703 2.58923C11.4284 2.46101 12.401 2.46101 13.359 2.58923C13.2937 2.57955 13.2308 2.5723 13.1655 2.56262C14.0969 2.69084 15.009 2.94004 15.8752 3.30294C15.8171 3.27875 15.759 3.25455 15.701 3.23036C16.1824 3.43359 16.6493 3.67068 17.0969 3.94407C17.3243 4.08197 17.5445 4.22713 17.7598 4.38197C17.8155 4.4231 17.8735 4.46423 17.9292 4.50536C17.9752 4.53923 18.1445 4.67713 17.9485 4.51988C18.0574 4.60697 18.1687 4.69407 18.2752 4.78601C18.6937 5.13681 19.0832 5.52149 19.4437 5.93278C19.5284 6.02955 19.6131 6.12875 19.6953 6.23036C19.7389 6.28359 19.7824 6.33923 19.826 6.39488C19.8961 6.48197 19.7776 6.33197 19.7776 6.33197C19.8066 6.36826 19.8332 6.40697 19.8623 6.44326C20.0219 6.65617 20.1719 6.87633 20.3147 7.09891C20.6316 7.5973 20.9074 8.12472 21.1373 8.66907C21.1131 8.61101 21.0889 8.55294 21.0647 8.49488C21.4276 9.36101 21.6768 10.2731 21.805 11.2046C21.7953 11.1392 21.7881 11.0763 21.7784 11.011C21.9066 11.9691 21.9066 12.9417 21.7784 13.8997C21.7881 13.8344 21.7953 13.7715 21.805 13.7062C21.6768 14.6376 21.4276 15.5497 21.0647 16.4158C21.0889 16.3578 21.1131 16.2997 21.1373 16.2417C20.934 16.7231 20.6969 17.19 20.4235 17.6376C20.2856 17.865 20.1405 18.0852 19.9856 18.3005C19.9445 18.3562 19.9034 18.4142 19.8623 18.4699C19.8284 18.5158 19.6905 18.6852 19.8477 18.4892C19.7606 18.5981 19.6735 18.7094 19.5816 18.8158C19.2308 19.2344 18.8461 19.6239 18.4348 19.9844C18.3381 20.0691 18.2389 20.1537 18.1373 20.236C18.084 20.2796 18.0284 20.3231 17.9727 20.3667C17.8856 20.4368 18.0356 20.3183 18.0356 20.3183C17.9993 20.3473 17.9606 20.3739 17.9243 20.4029C17.7114 20.5626 17.4913 20.7126 17.2687 20.8554C16.7703 21.1723 16.2429 21.4481 15.6985 21.6779C15.7566 21.6537 15.8147 21.6296 15.8727 21.6054C15.0066 21.9683 14.0945 22.2175 13.1631 22.3457C13.2284 22.336 13.2913 22.3287 13.3566 22.3191C12.3985 22.4473 11.426 22.4473 10.4679 22.3191C10.5332 22.3287 10.5961 22.336 10.6614 22.3457C9.72999 22.2175 8.81789 21.9683 7.95177 21.6054C8.00983 21.6296 8.06789 21.6537 8.12596 21.6779C7.64451 21.4747 7.17757 21.2376 6.72999 20.9642C6.50257 20.8263 6.28241 20.6812 6.06709 20.5263C6.01144 20.4852 5.95338 20.4441 5.89773 20.4029C5.85177 20.3691 5.68241 20.2312 5.87838 20.3884C5.76951 20.3013 5.65822 20.2142 5.55177 20.1223C5.13322 19.7715 4.7437 19.3868 4.38322 18.9755C4.29854 18.8787 4.21386 18.7796 4.1316 18.6779C4.08806 18.6247 4.04451 18.5691 4.00096 18.5134C3.9308 18.4263 4.04935 18.5763 4.04935 18.5763C4.02031 18.54 3.9937 18.5013 3.96467 18.465C3.80499 18.2521 3.65499 18.032 3.51225 17.8094C3.19531 17.311 2.91951 16.7836 2.68967 16.2392C2.71386 16.2973 2.73806 16.3554 2.76225 16.4134C2.39935 15.5473 2.15015 14.6352 2.02193 13.7037C2.0316 13.7691 2.03886 13.832 2.04854 13.8973C1.92031 12.9392 1.92031 11.9667 2.04854 11.0086C2.03886 11.0739 2.0316 11.1368 2.02193 11.2021C2.15015 10.2707 2.39935 9.35859 2.76225 8.49246C2.73806 8.55052 2.71386 8.60859 2.68967 8.66665C2.95096 8.0473 3.27031 7.45213 3.64289 6.89326C3.73967 6.7481 3.83886 6.60778 3.94289 6.46746C3.96467 6.43843 3.98402 6.41181 4.0058 6.38278C4.11709 6.2352 3.92112 6.48923 3.99854 6.39004C4.04935 6.32472 4.10015 6.26181 4.15096 6.19891C4.37596 5.9231 4.61548 5.66181 4.86709 5.4102C5.13564 5.14165 5.15741 4.6481 4.86709 4.38439C4.5816 4.11584 4.1316 4.09407 3.84612 4.38197Z" fill="#54838F"/>
<path d="M11.2161 11.7513C11.0371 11.9448 10.9282 12.1819 10.9258 12.4505C10.9258 12.7093 11.0322 12.9658 11.2161 13.1496C11.5911 13.5295 12.2371 13.5295 12.6145 13.1496C12.9919 12.7674 12.9967 12.1335 12.6145 11.7513C12.4306 11.5674 12.1742 11.4609 11.9153 11.4609C11.6467 11.4634 11.4121 11.5722 11.2161 11.7513C11.083 11.8746 11.0032 12.0851 11.0032 12.2642C11.0032 12.4432 11.083 12.6537 11.2161 12.7771C11.5161 13.0529 11.9443 13.0529 12.2419 12.7771C12.2516 12.7674 12.2637 12.7577 12.2734 12.7505C12.225 12.7892 12.1766 12.8255 12.1258 12.8642C12.1427 12.8521 12.1597 12.8424 12.179 12.8351C12.1209 12.8593 12.0629 12.8835 12.0048 12.9077C12.0242 12.9005 12.0435 12.8956 12.0629 12.8908C11.9976 12.9005 11.9347 12.9077 11.8693 12.9174C11.8959 12.915 11.9226 12.915 11.9492 12.9174C11.8838 12.9077 11.8209 12.9005 11.7556 12.8908C11.7774 12.8956 11.7943 12.9005 11.8137 12.9077C11.7556 12.8835 11.6976 12.8593 11.6395 12.8351C11.6588 12.8448 11.6758 12.8545 11.6927 12.8642C11.6443 12.8255 11.5959 12.7892 11.5451 12.7505C11.5693 12.7674 11.5863 12.7867 11.6056 12.8109C11.5669 12.7626 11.5306 12.7142 11.4919 12.6634C11.504 12.6803 11.5137 12.6972 11.5209 12.7166C11.4967 12.6585 11.4726 12.6005 11.4484 12.5424C11.4556 12.5617 11.4605 12.5811 11.4653 12.6005C11.4556 12.5351 11.4484 12.4722 11.4387 12.4069C11.4411 12.4335 11.4411 12.4601 11.4387 12.4867C11.4484 12.4214 11.4556 12.3585 11.4653 12.2932C11.4605 12.315 11.4556 12.3319 11.4484 12.3513C11.4726 12.2932 11.4967 12.2351 11.5209 12.1771C11.5113 12.1964 11.5016 12.2134 11.4919 12.2303C11.5306 12.1819 11.5669 12.1335 11.6056 12.0827C11.5887 12.1069 11.5693 12.1238 11.5451 12.1432C11.5935 12.1045 11.6419 12.0682 11.6927 12.0295C11.6758 12.0416 11.6588 12.0513 11.6395 12.0585C11.6976 12.0343 11.7556 12.0101 11.8137 11.9859C11.7943 11.9932 11.775 11.998 11.7556 12.0029C11.8209 11.9932 11.8838 11.9859 11.9492 11.9763C11.9226 11.9787 11.8959 11.9787 11.8693 11.9763C11.9347 11.9859 11.9976 11.9932 12.0629 12.0029C12.0411 11.998 12.0242 11.9932 12.0048 11.9859C12.0629 12.0101 12.1209 12.0343 12.179 12.0585C12.1597 12.0488 12.1427 12.0392 12.1258 12.0295C12.1742 12.0682 12.2226 12.1045 12.2734 12.1432C12.2492 12.1263 12.2322 12.1069 12.2129 12.0827C12.2516 12.1311 12.2879 12.1795 12.3266 12.2303C12.3145 12.2134 12.3048 12.1964 12.2976 12.1771C12.3217 12.2351 12.3459 12.2932 12.3701 12.3513C12.3629 12.3319 12.358 12.3126 12.3532 12.2932C12.3629 12.3585 12.3701 12.4214 12.3798 12.4867C12.3774 12.4601 12.3774 12.4335 12.3798 12.4069C12.3701 12.4722 12.3629 12.5351 12.3532 12.6005C12.358 12.5787 12.3629 12.5617 12.3701 12.5424C12.3459 12.6005 12.3217 12.6585 12.2976 12.7166C12.3072 12.6972 12.3169 12.6803 12.3266 12.6634C12.2879 12.7117 12.2516 12.7601 12.2129 12.8109C12.2201 12.7988 12.2298 12.7892 12.2395 12.7795C12.3701 12.6392 12.4524 12.4601 12.4524 12.2666C12.4524 12.0876 12.3726 11.8771 12.2395 11.7537C12.1016 11.6279 11.9201 11.5335 11.7266 11.5408C11.5427 11.548 11.3492 11.6109 11.2161 11.7513Z" fill="#54838F"/>
<path d="M6.4443 18.8135C6.7201 18.7095 6.99833 18.6079 7.27414 18.5039C7.93704 18.2571 8.59994 18.0103 9.26285 17.7635C10.0588 17.466 10.8572 17.1708 11.6532 16.8732C12.333 16.6192 13.0104 16.3676 13.6903 16.1135C13.9999 15.9974 14.312 15.8861 14.6193 15.7676C14.6217 15.7676 14.6217 15.7676 14.6241 15.7652C14.7766 15.7047 14.8999 15.6369 15.0016 15.5039C15.062 15.4264 15.0959 15.349 15.1322 15.2571C15.1346 15.2498 15.137 15.245 15.1395 15.2377C15.154 15.1966 15.1709 15.1579 15.1854 15.1168C15.2532 14.9402 15.3185 14.766 15.3862 14.5894C15.6257 13.9627 15.8628 13.3337 16.1024 12.7071C16.4024 11.916 16.7048 11.1248 17.0048 10.3313C17.2757 9.62 17.5467 8.90871 17.8177 8.195C17.9653 7.8079 18.1128 7.41838 18.2604 7.03129C18.2677 7.01435 18.2749 6.995 18.2798 6.97806C18.4685 6.48209 17.883 5.89661 17.387 6.08532C17.1137 6.18935 16.8427 6.29338 16.5693 6.39742C15.9137 6.64661 15.258 6.8958 14.6024 7.145C13.8088 7.44742 13.0128 7.74984 12.2193 8.05226C11.5298 8.31355 10.8403 8.57726 10.1507 8.83855C9.80962 8.96919 9.46849 9.095 9.12736 9.22806C9.12252 9.23048 9.11526 9.2329 9.11043 9.23532C9.01849 9.27161 8.94107 9.30548 8.86365 9.36596C8.73301 9.46758 8.66285 9.59097 8.60236 9.74338C8.60236 9.7458 8.60236 9.7458 8.59994 9.74822C8.58785 9.77726 8.57817 9.80871 8.56607 9.83774C8.50559 9.99742 8.44752 10.1595 8.38704 10.3192C8.15962 10.9313 7.92978 11.5434 7.70236 12.1579C7.4072 12.949 7.11204 13.7402 6.81688 14.5313C6.54833 15.2498 6.2822 15.9684 6.01365 16.6869C5.86607 17.0813 5.72091 17.4732 5.57333 17.8676C5.56607 17.8869 5.55881 17.9039 5.55397 17.9232C5.49107 18.0902 5.53946 18.3345 5.62656 18.4821C5.71365 18.6321 5.88785 18.7773 6.05962 18.816C6.47091 18.9103 6.80962 18.6902 6.95236 18.3079C7.05397 18.0369 7.15559 17.7635 7.2572 17.4926C7.49914 16.8442 7.74107 16.1934 7.98301 15.545C8.27817 14.7563 8.57091 13.9676 8.86607 13.1764C9.1201 12.4966 9.37172 11.8168 9.62575 11.1394C9.74914 10.8079 9.8822 10.4789 9.99591 10.1426C9.99833 10.1377 9.99833 10.1329 10.0007 10.1281C9.83139 10.2974 9.66204 10.4668 9.49268 10.6361C9.76849 10.5321 10.0419 10.4281 10.3177 10.3216C10.9733 10.0724 11.6314 9.82322 12.287 9.57161C13.0854 9.26919 13.8838 8.96435 14.6822 8.66193C15.3717 8.40064 16.0637 8.13693 16.7532 7.87564C17.087 7.74984 17.4257 7.63129 17.7572 7.49338C17.762 7.49097 17.7669 7.48855 17.7717 7.48855C17.4741 7.19096 17.1766 6.89338 16.879 6.5958C16.7749 6.87161 16.6709 7.145 16.5645 7.4208C16.3153 8.07645 16.0661 8.73451 15.8145 9.39016C15.512 10.1885 15.2072 10.9869 14.9048 11.7853C14.6435 12.4748 14.3798 13.1668 14.1185 13.8563C13.9927 14.1902 13.8548 14.5216 13.7362 14.8603C13.7338 14.8652 13.7314 14.87 13.7314 14.8748C13.9007 14.7055 14.0701 14.5361 14.2395 14.3668C13.9685 14.4684 13.6951 14.57 13.4241 14.6716C12.7757 14.9135 12.1249 15.1555 11.4766 15.3974C10.6878 15.6926 9.89914 15.9853 9.10801 16.2805C8.42817 16.5345 7.74833 16.7861 7.07091 17.0402C6.73946 17.1635 6.40559 17.2845 6.07414 17.4103C6.0693 17.4127 6.06446 17.4127 6.05962 17.4152C5.87817 17.4829 5.72575 17.5773 5.62656 17.749C5.53462 17.9039 5.49591 18.1337 5.55397 18.3079C5.66526 18.6563 6.06446 18.9563 6.4443 18.8135Z" fill="#54838F"/>
</svg>
