<svg width="12" height="12" viewBox="0 0 12 12" fill="none" xmlns="http://www.w3.org/2000/svg">
<g clip-path="url(#clip0_505_5164)">
<path d="M3.26941 2.76208H5.13147C5.25562 2.76208 5.33837 2.66553 5.33837 2.52069C5.33837 2.37585 5.25562 2.2793 5.13147 2.2793H3.26941C3.14526 2.2793 3.0625 2.37585 3.0625 2.52069C3.06252 2.66553 3.14528 2.76208 3.26941 2.76208Z" fill="#CCCCCC"/>
<path d="M2.44128 3.96911H5.13095C5.25509 3.96911 5.33785 3.87256 5.33785 3.72772C5.33785 3.58288 5.25509 3.48633 5.13095 3.48633H2.44128C2.31713 3.48633 2.23438 3.58288 2.23438 3.72772C2.23438 3.87256 2.31713 3.96911 2.44128 3.96911Z" fill="#CCCCCC"/>
<path d="M2.44128 5.17516H4.30334C4.42749 5.17516 4.51025 5.07861 4.51025 4.93377C4.51025 4.78893 4.42749 4.69238 4.30334 4.69238H2.44128C2.31713 4.69238 2.23438 4.78893 2.23438 4.93377C2.23438 5.07861 2.31713 5.17516 2.44128 5.17516Z" fill="#CCCCCC"/>
<path d="M5.13147 5.89941H3.26941C3.14526 5.89941 3.0625 5.99596 3.0625 6.1408C3.0625 6.28564 3.14526 6.3822 3.26941 6.3822H5.13147C5.25562 6.3822 5.33837 6.28564 5.33837 6.1408C5.33837 5.99596 5.25562 5.89941 5.13147 5.89941Z" fill="#CCCCCC"/>
<path d="M2.44128 7.58923H5.13095C5.25509 7.58923 5.33785 7.49268 5.33785 7.34784C5.33785 7.203 5.25509 7.10645 5.13095 7.10645H2.44128C2.31713 7.10645 2.23438 7.203 2.23438 7.34784C2.23438 7.49268 2.31713 7.58923 2.44128 7.58923Z" fill="#CCCCCC"/>
<path d="M11.7524 0.589383H11.3799C10.8834 0.396281 10.3868 0.251441 9.89027 0.179035L9.70405 0.154891C9.14544 0.0824844 8.56612 0.0824844 8.00751 0.154891L7.8213 0.179035V0.20318C7.32632 0.272469 6.85028 0.408203 6.37506 0.589C4.79481 -0.0617539 2.93934 -0.0541797 1.36612 0.58941H0.993695H0.373047V10.0032V10.4859V11.2101H7.82132V12.8997L8.8558 11.9825L9.89029 12.8997V11.2101H12.373V10.4859V10.0032V0.589383H11.7524ZM9.89029 9.54457C10.3868 9.61698 10.842 9.76182 11.2558 9.97906L11.2972 10.0032H9.89029V9.54457ZM11.2558 1.04802L11.2972 1.07216H11.3386V9.49631C10.9041 9.25492 10.4076 9.11011 9.89031 9.06182V7.58941H10.511C10.6352 7.58941 10.7179 7.49286 10.7179 7.34802C10.7179 7.20318 10.6352 7.10663 10.511 7.10663H9.89031V5.17559H10.511C10.6352 5.17559 10.7179 5.07903 10.7179 4.9342C10.7179 4.78936 10.6352 4.6928 10.511 4.6928H9.89031V2.76176H10.511C10.6352 2.76176 10.7179 2.66521 10.7179 2.52037C10.7179 2.37553 10.6352 2.27898 10.511 2.27898H9.89031V0.665152C10.3586 0.738598 10.8073 0.881496 11.2558 1.04802ZM5.7223 10.0032H1.49029C2.71204 9.3769 4.1327 9.38877 5.7223 10.0032ZM7.82132 9.75255V10.0032H7.0529C7.3138 9.90559 7.56993 9.82121 7.82132 9.75255ZM7.82132 2.27906H7.61441C7.49027 2.27906 7.40751 2.37561 7.40751 2.52045C7.40751 2.66529 7.49027 2.76184 7.61441 2.76184H7.82132V3.48599H7.61441C7.49027 3.48599 7.40751 3.58254 7.40751 3.72738C7.40751 3.87222 7.49027 3.96877 7.61441 3.96877H7.82132V4.69291H7.61441C7.49027 4.69291 7.40751 4.78946 7.40751 4.9343C7.40751 5.07914 7.49027 5.17569 7.61441 5.17569H7.82132V5.89984H7.61441C7.49027 5.89984 7.40751 5.99639 7.40751 6.14123C7.40751 6.28607 7.49027 6.38262 7.61441 6.38262H7.82132V9.23091C7.42823 9.32746 7.01441 9.4723 6.57993 9.64126V0.99973C6.99372 0.854891 7.40751 0.734223 7.82132 0.685934V2.27906ZM1.46959 1.04802C2.93856 0.44457 4.6765 0.420426 6.16614 0.99973V9.64112C6.0936 9.6123 6.02167 9.58477 5.95005 9.55786C4.30893 8.9041 2.82077 8.85255 1.5302 9.43859C1.48914 9.45715 1.44824 9.47637 1.40751 9.49628V1.07216H1.4489L1.46959 1.04802ZM0.786836 1.07216H0.993742V10.0032H0.786836V1.07216ZM0.786836 10.7273V10.4859H7.82132V10.7273H0.786836ZM9.4765 11.9342L8.8558 11.4032L8.23511 11.9342V11.2101V10.4859V10.0032V9.64112V9.15837V0.613527C8.6489 0.565238 9.06269 0.565238 9.4765 0.613527V9.03767V9.52042V10.0032V10.4859V11.2101V11.9342ZM11.9593 10.7273H9.89029V10.4859H11.9593V10.7273ZM11.7524 10.0032V1.07216H11.9593V10.0032H11.7524Z" fill="#CCCCCC"/>
</g>
<defs>
<clipPath id="clip0_505_5164">
<rect width="12" height="12" fill="white"/>
</clipPath>
</defs>
</svg>
