<svg width="30" height="30" viewBox="0 0 30 30" fill="none" xmlns="http://www.w3.org/2000/svg">
<circle cx="15" cy="15" r="15" fill="#192426"/>
<path d="M21.4408 13.9601L20.7874 16.7468C20.2274 19.1534 19.1208 20.1268 17.0408 19.9268C16.7074 19.9001 16.3474 19.8401 15.9608 19.7468L14.8408 19.4801C12.0608 18.8201 11.2008 17.4468 11.8541 14.6601L12.5074 11.8668C12.6408 11.3001 12.8008 10.8068 13.0008 10.4001C13.7808 8.78675 15.1074 8.35342 17.3341 8.88009L18.4474 9.14009C21.2408 9.79342 22.0941 11.1734 21.4408 13.9601Z" stroke="#70807E" stroke-width="1.5" stroke-linecap="round" stroke-linejoin="round"/>
<path d="M17.0402 19.9266C16.6269 20.2066 16.1069 20.4399 15.4736 20.6466L14.4202 20.9932C11.7736 21.8466 10.3802 21.1332 9.52023 18.4866L8.66689 15.8532C7.81356 13.2066 8.52023 11.8066 11.1669 10.9532L12.2202 10.6066C12.4936 10.5199 12.7536 10.4466 13.0002 10.3999C12.8002 10.8066 12.6402 11.2999 12.5069 11.8666L11.8536 14.6599C11.2002 17.4466 12.0602 18.8199 14.8402 19.4799L15.9602 19.7466C16.3469 19.8399 16.7069 19.8999 17.0402 19.9266Z" stroke="#70807E" stroke-width="1.5" stroke-linecap="round" stroke-linejoin="round"/>
</svg>
