<svg width="30" height="30" viewBox="0 0 30 30" fill="none" xmlns="http://www.w3.org/2000/svg">
<circle cx="15" cy="15" r="15" fill="#192426"/>
<path d="M21.6673 10.1133V18.16C21.6673 18.8 21.1473 19.4 20.5073 19.48L20.2873 19.5066C18.834 19.7 16.594 20.44 15.314 21.1466C15.1406 21.2466 14.854 21.2466 14.674 21.1466L14.6473 21.1333C13.3673 20.4333 11.134 19.7 9.68734 19.5066L9.49398 19.48C8.85398 19.4 8.33398 18.8 8.33398 18.16V10.1066C8.33398 9.31329 8.98063 8.7133 9.77397 8.77996C11.174 8.8933 13.294 9.59998 14.4806 10.34L14.6473 10.44C14.8406 10.56 15.1607 10.56 15.354 10.44L15.4673 10.3666C15.8873 10.1066 16.4207 9.84663 17.0007 9.6133V12.3333L18.334 11.4466L19.6673 12.3333V8.85333C19.8473 8.81999 20.0207 8.79997 20.1807 8.78664H20.2207C21.014 8.71997 21.6673 9.3133 21.6673 10.1133Z" stroke="#70807E" stroke-width="1.5" stroke-linecap="round" stroke-linejoin="round"/>
<path d="M15 10.6599V20.6599" stroke="#70807E" stroke-width="1.5" stroke-linecap="round" stroke-linejoin="round"/>
<path d="M19.6667 8.85327V12.3333L18.3333 11.4466L17 12.3333V9.61324C17.8733 9.26657 18.8467 8.9866 19.6667 8.85327Z" stroke="#70807E" stroke-width="1.5" stroke-linecap="round" stroke-linejoin="round"/>
</svg>
