<svg width="24" height="25" viewBox="0 0 24 25" fill="none" xmlns="http://www.w3.org/2000/svg">
<path d="M12.89 6.45166H5.10999C3.39999 6.45166 2 7.85165 2 9.56165V20.9217C2 22.3717 3.04 22.9916 4.31 22.2816L8.23999 20.0916C8.65999 19.8616 9.34 19.8616 9.75 20.0916L13.68 22.2816C14.95 22.9916 15.99 22.3717 15.99 20.9217V9.56165C16 7.85165 14.6 6.45166 12.89 6.45166Z" stroke="#54838F" stroke-width="1.5" stroke-linecap="round" stroke-linejoin="round"/>
<path d="M16 9.56165V20.9217C16 22.3717 14.96 22.9816 13.69 22.2816L9.76001 20.0916C9.34001 19.8616 8.65999 19.8616 8.23999 20.0916L4.31 22.2816C3.04 22.9816 2 22.3717 2 20.9217V9.56165C2 7.85165 3.39999 6.45166 5.10999 6.45166H12.89C14.6 6.45166 16 7.85165 16 9.56165Z" stroke="#54838F" stroke-width="1.5" stroke-linecap="round" stroke-linejoin="round"/>
<path d="M22 5.68152V17.0415C22 18.4915 20.96 19.1015 19.69 18.4015L16 16.3415V9.56152C16 7.85152 14.6 6.45154 12.89 6.45154H8V5.68152C8 3.97152 9.39999 2.57153 11.11 2.57153H18.89C20.6 2.57153 22 3.97152 22 5.68152Z" stroke="#54838F" stroke-width="1.5" stroke-linecap="round" stroke-linejoin="round"/>
</svg>
