<svg width="24" height="25" viewBox="0 0 24 25" fill="none" xmlns="http://www.w3.org/2000/svg">
<path d="M3 9.68164V15.4516C3 17.5716 3 17.5716 5 18.9216L10.5 22.1016C11.33 22.5816 12.68 22.5816 13.5 22.1016L19 18.9216C21 17.5716 21 17.5716 21 15.4616V9.68164C21 7.57164 21 7.57164 19 6.22164L13.5 3.04164C12.68 2.56164 11.33 2.56164 10.5 3.04164L5 6.22164C3 7.57164 3 7.57164 3 9.68164Z" stroke="#54838F" stroke-width="1.5" stroke-linecap="round" stroke-linejoin="round"/>
<path d="M12 15.5715C13.6569 15.5715 15 14.2284 15 12.5715C15 10.9147 13.6569 9.57153 12 9.57153C10.3431 9.57153 9 10.9147 9 12.5715C9 14.2284 10.3431 15.5715 12 15.5715Z" stroke="#54838F" stroke-width="1.5" stroke-linecap="round" stroke-linejoin="round"/>
</svg>
