<svg width="76" height="20" viewBox="0 0 76 20" fill="none" xmlns="http://www.w3.org/2000/svg">
<path d="M11.1992 8.0114V10.3314H13.2792C13.4392 10.3314 13.5192 10.4914 13.5192 10.6514L13.1992 12.1714C13.1992 12.2514 13.0392 12.3314 12.9592 12.3314H11.1992V18.1714H8.79922V12.4114H7.43922C7.27922 12.4114 7.19922 12.3314 7.19922 12.1714V10.6514C7.19922 10.4914 7.27922 10.4114 7.43922 10.4114H8.79922V7.7714C8.79922 6.4114 9.83922 5.3714 11.1992 5.3714H13.3592C13.5192 5.3714 13.5992 5.4514 13.5992 5.6114V7.5314C13.5992 7.6914 13.5192 7.7714 13.3592 7.7714H11.4392C11.2792 7.7714 11.1992 7.8514 11.1992 8.0114Z" stroke="#676767" stroke-width="1.2" stroke-miterlimit="10" stroke-linecap="round"/>
<path d="M12.0016 18.1714H7.20156C3.20156 18.1714 1.60156 16.5714 1.60156 12.5714V7.77139C1.60156 3.77139 3.20156 2.17139 7.20156 2.17139H12.0016C16.0016 2.17139 17.6016 3.77139 17.6016 7.77139V12.5714C17.6016 16.5714 16.0016 18.1714 12.0016 18.1714Z" stroke="#676767" stroke-width="1.2" stroke-linecap="round" stroke-linejoin="round"/>
<path d="M36.0023 18.1714H40.8023C44.8023 18.1714 46.4023 16.5714 46.4023 12.5714V7.77139C46.4023 3.77139 44.8023 2.17139 40.8023 2.17139H36.0023C32.0023 2.17139 30.4023 3.77139 30.4023 7.77139V12.5714C30.4023 16.5714 32.0023 18.1714 36.0023 18.1714Z" stroke="#676767" stroke-width="1.2" stroke-linecap="round" stroke-linejoin="round"/>
<path d="M38.4016 12.9714C39.948 12.9714 41.2016 11.7178 41.2016 10.1714C41.2016 8.625 39.948 7.3714 38.4016 7.3714C36.8552 7.3714 35.6016 8.625 35.6016 10.1714C35.6016 11.7178 36.8552 12.9714 38.4016 12.9714Z" stroke="#676767" stroke-width="1.2" stroke-linecap="round" stroke-linejoin="round"/>
<path d="M42.9112 6.17142H42.9205" stroke="#676767" stroke-width="1.6" stroke-linecap="round" stroke-linejoin="round"/>
<path d="M71.4626 2.17139H74.1614L68.2653 8.94882L75.2016 18.1714H69.7705L65.5168 12.578L60.6495 18.1714H57.9491L64.2555 10.9222L57.6016 2.17139H63.1704L67.0155 7.284L71.4626 2.17139ZM70.5154 16.5468H72.0108L62.3579 3.71067H60.7531L70.5154 16.5468Z" fill="#676767"/>
</svg>
